# xmcd
#
# Track frame offsets: 
#        150
#        21665
#        46132
#        70285
#        102760
#        116880
#        139567
#        160537
#        196082
#        212502
#        235530
#        250927
#        264650
#        288257
#
# Disc length: 4194 seconds
#
# Revision: 1
# Processed by: cddbd v1.5.2PL0 Copyright (c) Steve Scherf et al.
# Submitted via: ExactAudioCopyFreeDBPlugin 1.0
#
DISCID=bf10600e
DTITLE=Various Artist - More Desaster City Blues
DYEAR=1997
DGENRE=Blues
TTITLE0=James Armstrong - The Devil´s Livin´There
TTITLE1=Blistering Blues Band - Help The Poor
TTITLE2=Blue By Nature - The Blues Is In My Way
TTITLE3=Barry Levenson - Cobra Days Blue Tears
TTITLE4=Christine Lakeland - Details
TTITLE5=Rich Harper Blues Band - She´s On Her Way Up
TTITLE6=Brenda Burns - One Woman Man
TTITLE7=RedHot Blues - One Bottle
TTITLE8=Cammilles Blues Box - My Man
TTITLE9=Blue By Nature - Love Me All Night
TTITLE10=Stan Ruffo and The Instigators - Take Away My Breath
TTITLE11=Brenda Burns - Broken Hearts Row
TTITLE12=RedHot Blues - Haunted By My Past
TTITLE13=Barry Levenson - Steel Life
EXTD=
EXTT0=
EXTT1=
EXTT2=
EXTT3=
EXTT4=
EXTT5=
EXTT6=
EXTT7=
EXTT8=
EXTT9=
EXTT10=
EXTT11=
EXTT12=
EXTT13=
PLAYORDER=
